<svg xmlns="http://www.w3.org/2000/svg" xmlns:xlink="http://www.w3.org/1999/xlink" id="Layer_1" x="0" y="0" version="1.1" viewBox="0 0 700 700" xml:space="preserve"><defs><path id="SVGID_1_" d="M344.2 2.9C139.8 4.1-53 219.8 63.2 562.6c13.6 40-24.3 99 14.1 123.2 30.7 19.3 120.2-28.9 79.8-90.9-182.9-280.7 7.3-488.7 197-492.3 177.5-3.3 372 199 190.9 492.3-26.7 43.3 7.7 92.9 63.6 94.4 65.2 1.7 11.4-78.8 35.4-147.9C747.1 245.5 563.9 8.9 353.9 3c-3.2 0-6.5-.1-9.7-.1zm9.9 246.7c-36.9.2-76 50.5-32.3 112.9 0 66.6-41.7 97.1-43 163.6-2.7 142.7 144.6 148.8 145.2 4.9.3-75.1-41.2-98.3-45.7-166.5 45.8-63.6 14.8-115.1-24.2-114.9zm-20 172.9c5.9 0 12.2 2.4 18 7.7 23.1-17.8 49.9.5 39.2 39.2-7.2 25.9-37.1 58.2-36.1 100.2 14.8-27.3 51.8 2.5-3 40.4-46.3-25.4-34.4-71.9-2-40.4-.8-40.5-22.7-59.5-35.6-92.9-12.5-32.1 1.8-54.1 19.5-54.2z"/></defs><g opacity=".996"><path fill="#879599" fill-rule="evenodd" d="M344.2 10.9C139.8 12.1-53 227.8 63.2 570.6c13.6 40-24.3 99 14.1 123.2 30.7 19.3 120.2-28.9 79.8-90.9-182.9-280.7 7.3-488.7 197-492.3 177.5-3.3 372 199 190.9 492.3-26.7 43.3 7.7 92.9 63.6 94.4 65.2 1.7 11.4-78.8 35.4-147.9C747.1 253.5 563.9 16.9 353.9 11c-3.2 0-6.5-.1-9.7-.1zm9.9 246.7c-36.9.2-76 50.5-32.3 112.9 0 66.6-41.7 97.1-43 163.6-2.7 142.7 144.6 148.8 145.2 4.9.3-75.1-41.2-98.3-45.7-166.5 45.8-63.6 14.8-115.1-24.2-114.9zm-20 172.9c5.9 0 12.2 2.4 18 7.7 23.1-17.8 49.9.5 39.2 39.2-7.2 25.9-37.1 58.2-36.1 100.2 14.8-27.3 51.8 2.5-3 40.4-46.3-25.4-34.4-71.9-2-40.4-.8-40.5-22.7-59.5-35.6-92.9-12.5-32.1 1.8-54.1 19.5-54.2zM134.7 621.4c5.4-.1 9.9 4.2 10 9.7v.2c0 5.5-4.4 9.9-9.9 9.9s-9.9-4.4-9.9-9.9c.1-5.4 4.4-9.8 9.8-9.9zm431.9.2c5.5 0 9.9 4.4 9.9 9.9s-4.4 9.9-9.9 9.9-9.9-4.4-9.9-9.9 4.5-9.9 9.9-9.9z" clip-rule="evenodd" transform="translate(-.875 -.531)"/><path fill="#abb5b7" fill-rule="evenodd" d="M344.2 2.9C139.8 4.1-53 219.8 63.2 562.6c13.6 40-24.3 99 14.1 123.2 30.7 19.3 120.2-28.9 79.8-90.9-182.9-280.7 7.3-488.7 197-492.3 177.5-3.3 372 199 190.9 492.3-26.7 43.3 7.7 92.9 63.6 94.4 65.2 1.7 11.4-78.8 35.4-147.9C747.1 245.5 563.9 8.9 353.9 3c-3.2 0-6.5-.1-9.7-.1zM134.7 613.4h.2c5.5 0 9.9 4.4 9.9 9.9s-4.4 9.9-9.9 9.9c-5.5.1-9.9-4.3-10-9.8 0-5.5 4.4-10 9.8-10zm431.9.2c5.5 0 9.9 4.4 9.9 9.9s-4.4 9.9-9.9 9.9-9.9-4.4-9.9-9.9 4.5-9.9 9.9-9.9zm-212.5-364c-36.9.2-76 50.5-32.3 112.9 0 66.6-41.7 97.1-43 163.6-2.7 142.7 144.6 148.8 145.2 4.9.3-75.1-41.2-98.3-45.7-166.5 45.8-63.6 14.8-115.1-24.2-114.9zm-20 172.9c5.9 0 12.2 2.4 18 7.7 23.1-17.8 49.9.5 39.2 39.2-7.2 25.9-37.1 58.2-36.1 100.2 14.8-27.3 51.8 2.5-3 40.4-46.3-25.4-34.4-71.9-2-40.4-.8-40.5-22.7-59.5-35.6-92.9-12.5-32.1 1.8-54.1 19.5-54.2z" clip-rule="evenodd" transform="translate(-.875 -.531)"/><path fill="#ecedef" fill-rule="evenodd" d="M129.8 413.1c9.2 74.8 127.3 73.8 122.6 34.7-5.5-46.9-91.4 16.7-122.6-34.7z" clip-rule="evenodd" transform="translate(-.875 -.531)"/><path fill="#efaece" fill-rule="evenodd" d="M151.6 264.6c-53.8 60.2-28.3 113.1 1.8 131.5 44 26.8 91.1 3.2 114.8 23.1-26.7-74.8-116-36.3-116.6-154.6z" clip-rule="evenodd" transform="translate(-.875 -.531)"/><path fill="#f4b665" fill-rule="evenodd" d="M262.2 145.4c-33.2 72.4-24.5 108-1 151.3 41.4 76.4 23.4 116.9 0 82.5-25.7-37.7-63.7-46.9-79.2-100.5-13.8-47.8 15.9-103 80.2-133.3z" clip-rule="evenodd" transform="translate(-.875 -.531)"/><path fill="#d198e7" fill-rule="evenodd" d="M573.4 411.6c-9.2 74.8-127.3 73.8-122.6 34.7 5.5-46.9 91.4 16.8 122.6-34.7z" clip-rule="evenodd" transform="translate(-.875 -.531)"/><path fill="#a2ddf5" fill-rule="evenodd" d="M551.6 263.1c53.8 60.2 28.3 113.1-1.8 131.5-44 26.8-91.1 3.2-114.8 23.1 26.7-74.7 116-36.3 116.6-154.6z" clip-rule="evenodd" transform="translate(-.875 -.531)"/><path fill="#faf8b0" fill-rule="evenodd" d="M441 143.9c33.2 72.4 24.5 108 1 151.3-41.4 76.4-23.4 116.9 0 82.5 25.7-37.7 63.7-46.9 79.2-100.5 13.8-47.7-15.9-103-80.2-133.3z" clip-rule="evenodd" transform="translate(-.875 -.531)"/><g transform="translate(-.875 -.531)"><defs><use xlink:href="#SVGID_1_"/></defs><clipPath id="SVGID_00000136397356869019286020000016323568400703851932_"><use overflow="visible" xlink:href="#SVGID_1_"/></clipPath><path fill="#fff" fill-opacity=".319" fill-rule="evenodd" d="m-73.2 255.5 51.5-78.8L744 563.6l-47.5 34.3-769.7-342.4z" clip-path="url(#SVGID_00000136397356869019286020000016323568400703851932_)" clip-rule="evenodd"/></g><g transform="translate(-.875 -.531)"><defs><use id="SVGID_00000013184600009727690290000014781066213619722890_" xlink:href="#SVGID_1_"/></defs><clipPath id="SVGID_00000018948523382516943280000001573366962839059607_"><use overflow="visible" xlink:href="#SVGID_00000013184600009727690290000014781066213619722890_"/></clipPath><path fill="#fff" fill-opacity=".319" fill-rule="evenodd" d="m12.7 184.8 5-15.2 771.8 384.9v14.1L12.7 184.8z" clip-path="url(#SVGID_00000018948523382516943280000001573366962839059607_)" clip-rule="evenodd"/></g><path fill="#829093" fill-rule="evenodd" d="m352.6 273.7 5.6 31.5 21.8-7.9-18.6 20 2.7-.2 11.9 19.3-4.5-3.6-14.1-5.1 1.1 2.4-6.2 35.4-5.3-35.1 1.4-2.7-14.2 5.1-4.4 3.6 11-19.2 2.9.1-11.1-16.3-4.5-3.8 18 7.5 6.5-31z" clip-rule="evenodd" transform="translate(-.875 -.531)"/><path fill="#c3c3c3" fill-rule="evenodd" d="m375 301 5-3.7-15.9 19.9-2.7.2 10.1 15.5 4.5 3.6-17.6-6.3-1.1-2.4h-9l-1.4 2.7-17.2 5.9 4.4-3.6 9.4-15.5-2.9-.1-12.8-20.1 4.5 3.8 16.9 10.9 7.8-4.2 18-6.6z" clip-rule="evenodd" transform="translate(-.875 -.531)"/><path fill="#df3b7c" fill-rule="evenodd" d="m332.6 301 14.8 6.6 5.1-28.1 4.8 28.2L375 301l-13.5 16.4 10.1 15.5-14.1-5.1-4.9 30.1-4-30.1-14.2 5.1 9.4-15.5-11.2-16.4z" clip-rule="evenodd" transform="translate(-.875 -.531)"/><g transform="translate(-.875 -.531)"><defs><path id="SVGID_00000080166883534186861910000017803081907120442253_" d="m324.1 294 20.3 8.5 7.5-35 6.3 35.6 24.8-8.9-18 22.5 13.4 21.9-19.8-7.2-7 40.1-6.1-39.7-19.4 6.7 12.4-21.7z"/></defs><defs><path id="SVGID_00000065795633852408546880000018154276175969501861_" d="m365 316.7-3.1.2 4.4 12.3 7 5.3 5.1 4.1-4.1-21.2z"/></defs><clipPath id="SVGID_00000145051413881607714090000010303742433716555393_"><use overflow="visible" xlink:href="#SVGID_00000080166883534186861910000017803081907120442253_"/></clipPath><clipPath id="SVGID_00000010283179297774644050000003699107026734772362_" clip-path="url(#SVGID_00000145051413881607714090000010303742433716555393_)"><use overflow="visible" xlink:href="#SVGID_00000065795633852408546880000018154276175969501861_"/></clipPath><path fill="#e5578f" fill-rule="evenodd" d="m357.3 328.7 1.2 2.8 18.4 8.5 1.5-1.4-5.1-4.1-13.7-7.7-2.3 1.9z" clip-path="url(#SVGID_00000010283179297774644050000003699107026734772362_)" clip-rule="evenodd"/></g></g></svg>