<svg xmlns="http://www.w3.org/2000/svg" id="Layer_1" x="0" y="0" version="1.1" viewBox="0 0 166 329" xml:space="preserve"><g fill-rule="evenodd" clip-rule="evenodd" opacity=".996"><path fill="#ecedef" d="M10.6 268.4c9.2 74.8 127.3 73.8 122.6 34.7-5.5-46.9-91.4 16.7-122.6-34.7z" transform="translate(-.875 -.531)"/><path fill="#efaece" d="M32.4 119.9C-21.4 180.1 4.1 233 34.2 251.4c44 26.8 91.1 3.2 114.8 23.1-26.7-74.8-116-36.3-116.6-154.6z" transform="translate(-.875 -.531)"/><path fill="#f4b665" d="M143 .7c-33.2 72.4-24.5 108-1 151.3 41.4 76.4 23.4 116.9 0 82.5-25.7-37.7-63.7-46.9-79.2-100.5C49 86.2 78.7 31 143 .7z" transform="translate(-.875 -.531)"/></g></svg>