<svg xmlns="http://www.w3.org/2000/svg" id="Layer_1" x="0" y="0" version="1.1" viewBox="0 0 166 329" xml:space="preserve"><g fill-rule="evenodd" clip-rule="evenodd" opacity=".996"><path fill="#d198e7" d="M157.2 268.4c-9.2 74.8-127.3 73.8-122.6 34.7 5.5-46.9 91.4 16.8 122.6-34.7z" transform="translate(-.875 -.531)"/><path fill="#a2ddf5" d="M135.4 119.9c53.8 60.2 28.3 113.1-1.8 131.5-44 26.8-91.1 3.2-114.8 23.1 26.7-74.7 116-36.3 116.6-154.6z" transform="translate(-.875 -.531)"/><path fill="#faf8b0" d="M24.8.7c33.2 72.4 24.5 108 1 151.3-41.4 76.4-23.4 116.9 0 82.5C51.5 196.8 89.5 187.6 105 134 118.8 86.3 89.1 31 24.8.7z" transform="translate(-.875 -.531)"/></g></svg>