<svg xmlns="http://www.w3.org/2000/svg" id="Layer_1" x="0" y="0" version="1.1" viewBox="0 0 1933 796.3" xml:space="preserve"><defs/><style>.st0{fill:#492485}.st1{fill:#7d45ae}.st8{fill:#2a4486}.st12{fill:#16396d}.st14{fill:#324e63}.st15{fill:#6b9bb2}.st16{fill:#072436}</style><path d="M99.7 296.2C88.9 288.8 48.4 253.7-6 284c-3 20.7-2.3 100.9-2.5 106.2 13.5 2.5 102.2-8.9 112.7-21l-4.5-73z" class="st0"/><path d="M1705.7 97.4c49.4-28.5 81.7-31.8 154.5-5.2l-8.8 41.2c-46.5-3.1-92.7-4.3-145.7-36z" class="st1"/><path d="M203.9 289.2c108.8-48.5 230.3-69.2 321.5-6 92.9-59.8 243-111.9 393-60.1 106.6-80.8 188.7-124.3 391.5-97.3 57.5-14.9 149.8-68.1 242.3-64.7 98.6 3.5 171.2 51.3 297.5 66.3l-179.4 221.2L207.6 357l-3.7-67.8z" class="st0"/><path d="M1543.6 61c-34.8 0-69.3 7.7-101.9 17.8 0 .5 0 1-.2 1.5-20.5 7.1-44.8 17-39.7 26.9 4.7 9.2 45.1-.6 93.7-16.3-12.1 13.8-10.4 20.5-.4 23.1 19.4 5.1 36-9.3 50-14.2 20.8 12.2 35.4 26.8 79.2 26.8 32.8 0 50-9 10.8-24.7 28.9 7 47.4 8.9 56.4 1 4.2-3.7 0-10-17.5-16.5-.1-.5-.1-1-.1-1.5-40-12.1-78.3-22.2-121.6-23.7-3-.2-5.8-.2-8.7-.2z" class="st1"/><path fill="#57399c" d="M1323.6 319.7c86.5-58.1 182.3-90 268.6-79.2 3-5.7 89.6-82.4 150.9-83.5 16.8-.3 33.2 7.1 50 7.4 62 1.2 26.8-68.4 139.4-164.4l.5 345.2c-203.1 11.3-406.2-15.3-609.4-25.5z"/><path d="M1940.1 285.7c-7.1.4-29.2 17-32.2 21-104.3-11.5-199.6 8.6-253.7 26 108.9 21.7 205 28.9 285.3 30.4l.6-77.4z" class="st0"/><path fill="#453090" d="M402.8 347.4c0-12.1-11-34-38.3-22.2.3-24.3-39.6-45.2-59.6-10.2-2.8-8.1-13.7-11-23.8 0-1.8-4.9-10.2-9.7-20.8-3l-14.7 40.5 157.2-5.1z"/><path fill="#5c3f9f" d="M409.3 343.3c-10.5-17.9-120.2-17.4-160.1-8.5l6 27.2 154.1-18.7z"/><path fill="#531460" d="M272.3 355.7c-3.6-8.3-11-14.8-18.9-17.6 16-12.1 18.6-61.3-38.3-50.4-17.1-53.2-78.5-30-92.2-1-12.6-12.2-32.3-.5-42.2 7.4-24.6-20.5-68.3-26-76.7-4.7l-.7 98.3 269-32z"/><path fill="#6199ad" d="M205.9 360c1.6-10.1 3.8-12 4.4-15.7.5-3-2.1-10.6 7.3-25.9-1.6 6.7-2.3 16.5-1.3 22.1 5.7-4.4 27.5-24.6 27.5-24.6 0 10.9-23.3 27.6-28.2 34.5-2 2.9-2.6 6.6-2.6 10.5l-7.1-.9zm-82.7 6.6c14.1-12.5 25-27.6 40.1-40.5 12.4-8.9 28.3-20.2 27.5-30.9 0 0-14.2 15.2-28.4 22.4-2.4-6-1.1-20.3.9-32-7.8 10.1-8.4 32.3-9.7 37-2.6 9.5-19.4 20.4-26.3 27-4.1 4-7.8 12.1-7.8 12.1-4.5.6-9.8.7-16.2.2-30.4-8.6-53.8-12.6-66.3-63.6-5.8 19.7 13.2 43.6 14.7 48.2-27.7-3.8-44.9-18.9-55.4-27.8 14.1 25.4 44.7 31 63.9 35.2 7.2 5.6 29.5 15.6 41.2 17l21.8-4.3z"/><linearGradient id="SVGID_1_" x1="937.866" x2="988.3789" y1="-364.9186" y2="-853.7837" gradientTransform="matrix(1 0 0 -1 0 -46.4501)" gradientUnits="userSpaceOnUse"><stop offset="0" stop-color="#2987aa"/><stop offset="1" stop-color="#163242"/></linearGradient><path fill="url(#SVGID_1_)" d="M2.4 381.8c607.8-95.5 1537.8-86.7 1934.5-23.2l1.6 435.7H-7.8L2.4 381.8z"/><path d="M645 434.2c-10.4-9.2-6.7-20.1 11.9-20.1 5.4 0 11.2 1.4 14.8 7.5 10.9-16.4 40.4-11.1 33 .5 37.8-.9 41.6 15.9 16.1 20.3-.7 3-9.6 3.7-20.8 3.2 6.6-12.3-.1-6.3-3.5-.2l-2.4-.2c4.2-9.2 0-6.6-3.6-.3-14.1-1.2-29-3.5-34.6-4.8-17.3 0-35.1-2.3-10.9-5.9z" class="st8"/><linearGradient id="SVGID_00000147204148005979058030000014514327462170650272_" x1="2.794" x2="972.977" y1="-723.0028" y2="-723.0028" gradientTransform="matrix(1 0 0 -1 0 -46.4501)" gradientUnits="userSpaceOnUse"><stop offset="0" stop-color="#3687b3"/><stop offset="1" stop-color="#17578f"/></linearGradient><path fill="url(#SVGID_00000147204148005979058030000014514327462170650272_)" d="M2.8 563l1.3 3.5s33.2.9 43.4 16.1c4.8 7.2-4.5 35.7 15.5 58.5 34.6 39.7 306 49.9 387.6 68.7 99.7 22.9 130.8 71.5 282.5 78.6l50.8-1c43.4 1.9 98.1-7.4 101.7-8.5 10.1.4 47.9 7.8 53.5 10.4l36 .7c.8-2.1-78.4-17-89.9-18.3-4.6 2.3-31.1 9.9-132 9.9-163.2 0-185.7-50.6-302-76.7C349.9 682.2 108.8 676 67.7 633c-19.7-20.6-8.3-40.9-17.1-52.9-12-16.4-41.5-17.3-47.8-17.1z"/><linearGradient id="SVGID_00000176035695715819557650000000560023731269566105_" x1="924.3761" x2="960.4561" y1="-375.7562" y2="-441.9892" gradientTransform="matrix(1 0 0 -1 0 -46.4501)" gradientUnits="userSpaceOnUse"><stop offset="0" stop-color="#3f90be"/><stop offset="1" stop-color="#3189bb"/></linearGradient><path fill="url(#SVGID_00000176035695715819557650000000560023731269566105_)" d="M1938.9 426.9l1.7 4.3c-58.5 3.9-105.4 17.9-154 18-103.5.1-276.3-24.6-366.6-14.5 59.6 9.9-31.2 39.9-105.8 20.9-18.1 29-146.2 54-225.9 28.6-100 57.6-282.5 12.7-303.1-17.7-22.4 10.9-119.2 12.2-111.7-17.2-156.3 17.1-449.3-16.1-449.3-34.6 0-4.2 3.7-8.6 11.4-13C156 405.8 54.3 423.4 0 397.2l2.4-7.4c35.6 29.2 169.3 9.5 252.4 7.4-15.7 5.4-23 10.4-23 15 0 18.3 316.3 47.4 445.4 35.4-4.6 30 95.4 24.4 110.8 15.5 43.1 43.3 223.2 64.1 298.7 17.6 60 18.4 193.3 8.4 226.6-27.5 84.3 13.7 154-11.8 89.4-17.1 66.4-20.2 274.7 7.1 383.8 7.1 48.4-.1 105-14.6 152.4-16.3z"/><linearGradient id="SVGID_00000004539038638324770690000009045732021134827178_" x1="1365.501" x2="1481.7559" y1="-471.5222" y2="-679.1293" gradientTransform="matrix(1 0 0 -1 0 -46.4501)" gradientUnits="userSpaceOnUse"><stop offset="0" stop-color="#3687b3"/><stop offset="1" stop-color="#17578f"/></linearGradient><path fill="url(#SVGID_00000004539038638324770690000009045732021134827178_)" d="M1155.9 790.2c45.3-14.2 133.7-10.7 112.9-54.7 92.8 32.4 308.1 44.6 419.3 19.4 53.8-12.2 101.5-49.4 124.7-58.8 26.7-10.8 77 3.3 121.1 4.6l.5 4.1c-55.8.5-94.5-14.7-121.1-2.5-24.3 11.1-66.8 44.3-122.7 59.3-58.8 15.7-281.3 27.4-414.4-20.6 18.9 29.5-48.3 45.3-113.2 55.5l-7.1-6.3z"/><path d="M1424.8 791.4c53.3-55.5 132.1-30.2 169.2-.7M1449.9 775.6c-1.2-12.3 7.2-14.3 12.1-7.3l-12.1 7.3zm27.3-12.2c2.7-12.3 13.2-12.2 15.3-4.6l-15.3 4.6zm20.6.1c2.7-12.3 26.6-17.2 26.7-3l-26.7 3zm33.1-.5c9.9-7.7 11.7.5 8.5 7.7l-8.5-7.7z" class="st12"/><path fill="#2c5ac3" d="M1516.6 750.5c-1.1-.1-2.4-.1-3.8 0-6.8.7-13.6 5.8-18.1 10.9-.1.1-.2.3-.3.4-.6-2.3-1.4-4.7-2.5-6.5-1.3-2-3.2-3.6-5.5-3.3-2.7.3-5 1.6-6.8 3.5s-3.1 4.3-4.2 7.1c-1.9 4.7-2.9 10.2-3.8 15.2-4.4-7.3-8.5-11.6-12.2-13.4-2-1-3.9-1.3-5.6-1s-3 1.3-3.9 2.7c-1.8 2.7-2 6.9-.5 11.1s5 8.6 10.7 11.8l1-1.8c-5.3-3-8.4-7-9.8-10.8s-1.1-7.3.3-9.3c.7-1 1.5-1.6 2.7-1.9s2.5-.1 4.2.8c3.4 1.7 7.9 6.2 12.8 14.8l1.3 2.4.5-2.8c1-5.7 2.1-12.2 4.2-17.4 1-2.6 2.3-4.8 3.8-6.4s3.3-2.6 5.6-2.9c1.3-.2 2.4.7 3.5 2.4s2 4.2 2.5 6.6c.1.3.1.6.1.8-1.2 1.7-2.2 3.3-2.7 4.8-.3 1.1-.5 2.1-.2 3.1s1.2 1.7 2.2 1.9c.9.2 1.8-.3 2.3-1.1s.6-1.6.8-2.6c.2-1.6 0-3.5-.3-5.5.4-.6.8-1.1 1.3-1.7 4.2-4.8 10.8-9.7 16.8-10.2 5-.5 7.7.9 9.3 3.2s1.9 5.7 1.5 9.1l-.3 1.2c-.6.5-1.4 1-2 1.5-1.9 1.8-3.4 3.6-4.3 5.3-.4.8-.7 1.6-.8 2.4s.1 1.7.7 2.2c.4.4 1 .7 1.6.7s1.1-.2 1.5-.5c.9-.6 1.7-1.6 2.4-2.8 1.2-2 2.1-4.8 2.7-7.7 3.4-2.7 7.5-5.3 11.7-6.5 1.2-.3 1.7-.2 2.2.2s.8 1.1.8 2.2c.2 2.2-.6 5.4-1.7 7.6l-1.1 2.2 2.3-.8c3.8-1.3 8.3-3 12.1-3.2 1.9-.1 3.5.1 4.8.8s2.8 1.8 2.8 4c0 1.3-1.4 2.4-2.2 3.2-3 3.2-6.4 5-10 7.4 5.8-1.1 14.6-3.3 19.3.6 1.8 1.5 1.8 3.6 2.3 5.3l1.9-.6c-.3-1.2-.5-4.1-2.9-6.2-2.1-1.8-5.7-2.8-12-2.4 1-.9 2-1.8 2.8-2.8 1.4-1.5 2.9-3.1 2.7-5-.3-2.6-2.1-4.2-3.8-5.2s-3.7-1.2-5.8-1.1c-3.5.2-7.3 1.5-10.7 2.7.8-2.1 1.4-4.5 1.2-6.6-.1-1.4-.5-2.7-1.5-3.6s-2.5-1.2-4.1-.7c-3.9 1.1-7.4 3.3-10.7 5.6.3-3.5 0-7-1.9-9.7-1.3-1.8-3.7-3.3-7.2-3.7zm-23.3 16.4c.1 1.1.1 2 0 2.8-.1.8-.3 1.5-.5 1.8s0 .2-.2.2c-.5-.1-.6-.2-.7-.6s-.1-1 .2-1.8c.2-.6.7-1.5 1.2-2.4zm29.6 2.2c-.5 1.8-1.2 3.5-1.9 4.7-.6 1.1-1.3 1.9-1.8 2.2-.2.2-.4.2-.4.2l-.1-.1c-.1-.1-.2-.3-.2-.7s.2-1 .6-1.7c.6-1.3 2-2.9 3.8-4.6z"/><path d="M500.7 596.9c-6.4 2.6-54.2 8.3-62.4 7.4-1.8-16.8 46.8-27.2 62.4-7.4z" class="st14"/><path d="M466.1 605.9c-30.5 2.4-74.4 6.4-100.9 3.5 12-48.7 63.4-19.5 100.9-3.5z" class="st15"/><path d="M365.9 374.6c-8.6 2.6-27.8 2.9-38.5 2.4-.9-13.9 34.2-13.1 38.5-2.4z" class="st14"/><path d="M288.2 382.7c11.5 2 41.3.2 55.4-3.7-24.9-28.2-49.8-11.2-55.4 3.7z" class="st15"/><path d="M11.8 767.5c-.2 1.8 3.6.7 3.4-.4-.7-3.4 7.7-14.6 7.7-14.6-5.4 3.3-10.2 6.7-11.1 15zm23.5 4.3c-.6 1.8 3.5 1.4 3.5.2 0-3.6 11.5-14.8 11.5-14.8-6 2.4-12.4 6.3-15 14.6zm334.2-9.6c-1.4 1.8 1.9 1.9 2.5.7 1.8-3.7 14.9-12.4 14.9-12.4-5.7 1.6-11.2 3.4-17.4 11.7zm109.1-86.8c-1.2 1.4-2.7-1.9-2-2.8 1.9-2.5 9.1-17.2 7.5-17.9 3.3 6.3 0 14.3-5.5 20.7zm-27.4-7.8c-.2 1.8 3.2.7 3.4-.5.4-2.8 0-11.6-1.4-12.2-1.6 4.7-1.2 4.3-2 12.7zm-13.5-10.4c-.9-1.6-2.6 1.6-2 2.6 1.4 2.5 6.6 9.1 7.9 8.8-1.5-4.8-1.6-4.2-5.9-11.4zm-308.8-75.6c2.8-12 9.4-20.4 8.6-21.2-6.2 3.4-11.5 9.4-8.6 21.2zm-21.5-.7c.4-10.4 4.5-18.5 3.8-19-4.7 3.9-8.2 9.7-3.8 19zm-26.6-23.3c7.6 7.9 10.5 13.4 17.3 16.9-2.9-7.1-11-17-17.3-16.9zm303.8-96.5c-2.2-3-5.3-6.2-7.4-11.3-2.2 9.4 4.9 11.2 7.4 11.3zm15.8.1c-2.2-3-4.4-4.7-6.5-9.8.1 6.2 4 9.7 6.5 9.8zm-26.5-1.3c-2.2-3-4.7-5.6-8.1-11 .1 6.1 5.6 10.9 8.1 11zm-14.2-1.7c-2.2-3-4.3-4.1-7.7-9.5 2.3 6.9 5.2 9.5 7.7 9.5zm-142.2-80.3c-2.2-3-1.6-2.6-5-8-3.2 4.6 2.5 7.9 5 8zm-22.7.4c-2.2-3-.8-.4-4.2-5.8.4 3.7 1.7 5.7 4.2 5.8zm-15.8 2.8c-2.2-3-1.2-1.1-6.9-6.5.4 3.6 4.4 6.4 6.9 6.5zm234.7-2.4c-1.4-2.7-3.7-11-9.8-12.7-1.6 4 7.3 12.7 9.8 12.7zm10.5-3.7c-1.4-2.2-.9-2.1-4.3-7.5-1.8 4.8 1.5 8.1 4.3 7.5zm15.3-.4c-.8-2.8-1.7-3.9-3.5-9.5-4.5 4.2 1 9.4 3.5 9.5zm20.4 0c.6-2.4-.3-5.8-2.7-9-.2 3.6-.8 9.1 2.7 9zm27-2.7c-1.3-2.7-3.8-5.8-7.7-8 .2 4.7 4.5 8.9 7.7 8zm82.4-44.2c-1.3-2.7-2.6-7-6.5-9.2.2 4.8 3.3 10.1 6.5 9.2zm38-1.9c-1.9-1.5-2.3-3.1-4.6-7.8-.8 4.9 1.4 8.7 4.6 7.8zm7.5.7c1.3-1.7 1.6-5.2.2-9.9-.8 4.8-2.5 8-.2 9.9zm6.2.2c1.3-1.7 4.6-6.2 4-11-4.3 3.1-6.1 8.5-4 11zm10.6-.1c2-1.1 4-4.5 5.1-10.1-3.1 4.5-6.3 6.8-5.1 10.1zm139.6 388.9c-1-4.2-4.6-12.7-7.4-14.4-.6 8.9 4.2 12.9 7.4 14.4zm15.3 2.4c1.3-1.7 1.6-5.8 3.2-11.4-3.1 4.1-5.5 9.5-3.2 11.4zm23.3 2.1c1.3-1.7-2-5.8 13.9-20-11.8 4.9-18.2 15.7-13.9 20zm15.7-3.2c2.3-4.4 2.5-9.8 16.5-15.2-8.4-.5-20.7 10.8-16.5 15.2zm7.9 4.6c1.9-1 13.3-10.4 31.3-18-12.8-.5-33.4 12.3-31.3 18zM757 363.1c-1.1-1.8-2.6-2.3-7.2-6 2.6 4.4 4.6 7.4 7.2 6zm9.5-2.6c-.7-2-.2-1.8-4.1-6.3 1.8 4.8 1.3 7.1 4.1 6.3zm6.5 0c.5-2.1-.3-3.5-1-9.3-1.3 5-1.9 8.5 1 9.3zm8 .5c1.3-2-.3-3.5-1.2-9.4-3.2 5-5 8.4 1.2 9.4zm10.5-.1c0-2.1-1.3-3.4-3.7-9-.1 5.1.1 8.7 3.7 9zm12.5-1.1c.6-1.4-.1-2.4-.6-6.4-1.4 3.4-2.3 5.7.6 6.4zM360.2 760.5c-.9 2.1 2.7 2.5 3.3 1.2 1.4-3.3 4.5-14.1 3.5-15.6-3.3 4.9-2.8 4.7-6.8 14.4zm-10.5-11.6c1 3.6 2.8 7.7 3 13.2 5.4-8.1-.6-12.2-3-13.2z" class="st16"/><path id="F" d="M906.9 408c-1.3-2.9-2.5-5.9-5.5-10.8-.8 4.9 2.3 11.7 5.5 10.8z" class="st16"/><path d="M909.2 408.5c1.3-3.2 2.5-6.5 5.5-11.9.8 5.4-2.3 12.9-5.5 11.9z" class="st16"/><path id="G" d="M919.1 407c2.3-2.5 4.7-5.1 8.2-10.1-5.1 1.6-8.9 8.5-8.2 10.1z" class="st16"/><path d="M917.3 323.4c-.6-1.4.1-2.4.6-6.4 1.4 3.4 2.3 5.7-.6 6.4zm20.6-1.2c-.6-1.1.1-2 .6-5.2 1.4 2.7.7 3.4-.6 5.2zm-29.1.8c-2.2-3-3-4.3-5.1-9.4-1.5 6.2 2.6 9.3 5.1 9.4zm-12.7-.2c1.7-3-1.8-5.9-3.9-11-3.7 9.5 2.5 10.9 3.9 11zm273.3 27.7c2-3.2 2.9-4.4 6.8-8.2-6.4.9-7.7 5.8-6.8 8.2zm18.5 1.4c1.8-3.3 1.6-4 5.3-8-7.2 1.3-6.3 5.7-5.3 8zm-27.2-2.5c1.7-3.3.2-2.7 3.8-6.8-6.2 1.5-4.8 4.5-3.8 6.8zm117.3 81.5c-1.2-3.5-3.1-6-6.1-10.6 6 2.3 7.5 8.5 6.1 10.6zm4.3-1.3c2.2-3 1.2-4.5 2.2-6.6 1.5 6.3.3 6.5-2.2 6.6zm10.8-.5c1.8-3.3 3.4-4.3 4.4-6.3-5.8 2.6-5.9 4.3-4.4 6.3zm9.5 3.2c4.7-2.3 8.4-6 11.4-10.6-6 2.4-12.3 7.8-11.4 10.6zm102.6-89.5c2.6-2.7 4.4-3.3 6-5-6.4 1-6.8 2.6-6 5zm6.1 5.4c2.8-4.4 4.4-5.7 6.8-8.5-5.9 1.9-8.2 5.9-6.8 8.5zm9.3-.9c4.1-3.2 5.3-4.8 7.9-7.5-.1 3.9-4 6.6-7.9 7.5zm89.8-6.2c1.3-5 3.2-7.3 4.6-10.6-4.4 1.1-6.3 6.1-4.6 10.6zm-32 31.6c.2-4.5-.1-3.4-.8-6.9 4.4 4.1 3.5 4.9.8 6.9zm-3.7-28.6c-2.3-3-2.6-4.8-4.1-6.6.1 6.5 1.6 7.1 4.1 6.6zm8.7-.5c-1.9-2.2-2.2-3.6-3.4-4.9.1 4.8 1.4 5.3 3.4 4.9zm66.6 54.7c-.8-.7-1.1-3.8-.6-6.9 3.3 4.1 2.6 4.9.6 6.9zm-11.7-6.8c1 .5 2.4 3.6 3.1 7.1-4.7-3-4.3-4.2-3.1-7.1zm-57.5 135.2c2.6.8 2.8 7.8 8.2 12.5-6.6-1.2-11.3-7.3-8.2-12.5zm18 13.7c.9-8.4 1.8-10.6 5.5-15.5-6.9 2.3-7.8 11.8-5.5 15.5zm14.6-.6c4.5-5.2 4.6-4.7 6-7.7-.2 4.6-1.6 7.4-6 7.7zm74-197.6c1.2 1.9 2.3 3.9 2.2 7-1.9-1.7-3.3-3.7-2.2-7zm30.5 7.8c5.9-3.7 13-5.7 16.1-7.1-4.6.1-15.7 2.7-16.1 7.1zm-8.5-2.8c3.5-1.8 6.1-5.1 7.7-6.2-.5 3.3-5.4 7.1-7.7 6.2zm-8.2.6c.8-2.4 2.5-4.3 3-5.4-2.5.9-3.6 3.9-3 5.4zm190.4 93.1c-3.9-5.8-10.1-9.8-12.4-12.3 4.1 2 13.8 8.2 12.4 12.3zm11.5-3.8c-2.6-3.8-3.4-7.4-4.2-9.2-.5 1.9.3 7.3 4.2 9.2zm3.4 1.4c1.4-4.4 4.7-9.4 5.5-11.2-1.8.8-7.1 3.7-5.5 11.2zm5.7.1c2.9-.5 3.3-8.7 11.2-14.2-1.7.8-14.4 8-11.2 14.2zm10.2-.1c2.9-.5 7.7-8.4 15.6-13.9-5.9.6-18.9 7.7-15.6 13.9z" class="st16"/><path id="F_00000014630682969410824800000000319739473717754036_" d="M1694.1 649c-1.3-2.9-2.5-5.9-5.5-10.8-.8 4.9 2.3 11.7 5.5 10.8z" class="st16"/><path d="M1696.4 649.5c1.3-3.2 1.9-8.1 5.5-11.9.8 5.4-2.3 12.9-5.5 11.9z" class="st16"/><path id="G_00000090994808812766480270000009885874303741238181_" d="M1706.3 648c2.3-2.5 4.7-5.1 8.2-10.1-5.1 1.6-8.9 8.5-8.2 10.1z" class="st16"/><path d="M1735.2 372.7c-9.8.8-38.2 2.1-42.8-2.3-2.1-2 9.6-11.2 25.7-7.9-3.2-7.2-1.9-12.5 12.8-11.9-5.9-14.2 6-20.1 16.8-19.9 9.7.2 19.1 5.2 22.5 15.8 5.4-17.2 38.8-24.6 52.8-24.6 26.3 0 36.8 19.5 12.3 35.2 52.2.5 35.1 18.2-24.9 20.9-6.3.3-76.6 4.7-75.2-5.3z" class="st8"/><path d="M1847 379.3c-1.4-4.5-4-7.5-4.9-9.3 2.1.9 6.4 5.2 4.9 9.3zm-10.1-.8c-1.4-4.5-2.8-6.6-3.7-8.4 2.2.9 5.3 4.2 3.7 8.4zm-37.2 4.6c2.9-.5 2-7.5 9.1-13.6-4.6.6-10.5 7.8-9.1 13.6zm-8.6.7c.1-4.6 1-9.3 5.2-13.9-5.3 1.3-7.4 10.2-5.2 13.9zm-4.1-.6c-.8-4.8-1.3-8.8-3.4-12.8 3.9 1.8 5.5 9 3.4 12.8zm-26.8-.6c1.5-1.6 2.8-6.6 3.7-8.4-2.2.8-5.2 4.2-3.7 8.4zm-7.3-2.8c-.4-1.4.2-4.7.1-6 1 1.1 1.8 3.9-.1 6zm-26.5-3c-2.2-3.4-2.6-6.2-3.2-7.7-.9 1.3-.8 5.4 3.2 7.7zm-9.4-.8c-1-1-2-4.2-2.7-5.4 1.3.5 3.4 2.7 2.7 5.4zm-553.2 194c1 1.7-2.2 1-2.6 0-1.1-3.3-12.2-13.1-12.2-13.1 5.3 2.6 10.3 5.3 14.8 13.1zm9.4.9c.5 1.8-3.1 1.2-3.4.1-.8-2.8-1.7-11.8-.4-12.8 2.2 4.6 1.7 4.3 3.8 12.7zm12.3-6.3c-1.6 2.5-4.2 5.2-5.4 9.4-3.7-7.5 3-9.3 5.4-9.4zM687.8 446.2c.8-2.4.8-5.4 1.1-6.5 1.6 3.1 1.3 6.1-1.1 6.5zm-2.9-.3c-.8-2.3-2.5-4.5-4.4-7.1 3.1 1.7 4.3 4.7 4.4 7.1z" class="st16"/></svg>