<svg xmlns="http://www.w3.org/2000/svg" fill="none" viewBox="0 0 54 54"><path fill="#000" fill-rule="evenodd" d="M19.4414 3.24c0-1.7894 1.4506-3.24 3.24-3.24 11.9294 0 21.6 9.67065 21.6 21.6 0 1.7894-1.4506 3.24-3.24 3.24-1.7894 0-3.24-1.4506-3.24-3.24 0-8.3506-6.7694-15.12-15.12-15.12-1.7894 0-3.24-1.4506-3.24-3.24ZM34.5586 50.76c0 1.7894-1.4506 3.24-3.24 3.24-11.9293 0-21.59999-9.6706-21.59999-21.6 0-1.7894 1.45059-3.24 3.23999-3.24s3.24 1.4506 3.24 3.24c0 8.3505 6.7695 15.12 15.12 15.12 1.7894 0 3.24 1.4506 3.24 3.24ZM3.24 34.5601C1.4506 34.5601-6e-8 33.1095-1.4e-7 31.3201-6.6e-7 19.3907 9.67065 9.72007 21.6 9.72007c1.7894 0 3.24 1.45063 3.24 3.24003 0 1.7894-1.4506 3.24-3.24 3.24-8.3505 0-15.12 6.7694-15.12 15.12 0 1.7894-1.4506 3.24-3.24 3.24ZM50.76 19.4399c1.7894 0 3.24 1.4506 3.24 3.24 0 11.9294-9.6706 21.6-21.6 21.6-1.7894 0-3.24-1.4506-3.24-3.24 0-1.7894 1.4506-3.24 3.24-3.24 8.3505 0 15.12-6.7694 15.12-15.12 0-1.7894 1.4506-3.24 3.24-3.24Z" clip-rule="evenodd"/></svg>