<svg xmlns="http://www.w3.org/2000/svg" xml:space="preserve" viewBox="0 0 350 350"><path fill="#000" stroke-miterlimit="10" d="M108.15422556 315.34340556c132.11218 0 204.37282-109.45682 204.37282-204.37282 0-3.10811 0-6.20455-.21006-9.28543 14.05846-10.16846 26.19137-22.7565 35.83468-37.18062-13.1093 5.80777-27.01605 9.61997-41.25734 11.30045 14.99595-8.97812 26.2186-23.09493 31.57902-39.72857-14.10125 8.36739-29.5251 14.26463-45.61025 17.43498-27.20277-28.92604-72.7041-30.32255-101.63014-3.11978-18.65644 17.5439-26.5687 43.6847-20.78038 68.63127-57.74705-2.89805-111.55742-30.17473-148.03006-75.04977-19.06489 32.81993-9.32822 74.80859 22.23913 95.88461-11.43271-.33843-22.61257-3.4232-32.60209-8.98979v.91026c.00778 34.1931 24.11022 63.6404 57.62646 70.41289-10.57302 2.88249-21.67119 3.3065-32.43482 1.23313 9.40991 29.26058 36.37539 49.30575 67.10639 49.88147-25.43671 19.99071-56.85624 30.83992-89.20548 30.8088-5.71441-.01167-11.42104-.35788-17.09655-1.03863 32.84716 21.07991 71.0703 32.25977 110.09867 32.2092"/></svg>